<svg xmlns="http://www.w3.org/2000/svg" width="256" height="256" viewBox="0 0 256 256"><g fill="none"><path d="M127.778 0C60.486 0 5.239 52.412 0 119.053L68.673 132.137C72.33 129.287 76.949 127.658 81.925 127.658c.634 0 1.256.017 1.878.05l30.605-44.385c0-9.77.034-10.194.034-17.238c0-21.802 17.685-39.501 39.468-39.501c21.8 0 39.478 17.699 39.478 39.501c0 21.793-17.678 39.493-39.478 39.493c-.286 0-.545-.012-.814-.017l-43.67 31.21c.022.506.046 1.017.046 1.538c0 20.31-16.484 36.808-36.780 36.808c-17.735 0-32.619-12.639-36.021-29.414L.007 127.566C5.238 194.135 60.481 256 127.778 256C198.334 256 256 198.302 256 127.724C256 57.163 198.334 0 127.778 0ZM79.945 219.166l-16.616-6.903c2.941 6.109 7.846 11.194 14.359 14.252c13.985 6.561 30.635.87 37.185-13.133c3.187-6.788 3.187-14.319 0-21.1c-3.18-6.787-9.097-12.015-16.806-15.204c-6.815-3.192-14.166-3.207-20.804-.66l17.168 7.127c10.307 4.324 15.173 16.31 10.868 26.622c-4.31 10.303-16.282 15.162-25.354 9.9Zm110.265-97.496c-14.546 0-26.326-11.8-26.326-26.343c0-14.549 11.78-26.346 26.326-26.346c14.536 0 26.325 11.797 26.325 26.346c0 14.543-11.79 26.343-26.325 26.343Zm-.291-7.526c10.321 0 18.69-8.384 18.69-18.704c0-10.324-8.369-18.699-18.69-18.699c-10.329 0-18.691 8.375-18.691 18.699c0 10.32 8.362 18.704 18.69 18.704Z" fill="#FFFFFF"/></g></svg>